  0
SECTION
  2
HEADER
  9
$ACADVER
  1
AC1012
  9
$DWGCODEPAGE
  3
undefined
  9
$INSBASE
 10
0.0
 20
0.0
 30
0.0
  9
$EXTMIN
 10
1.000000000000000E+20
 20
1.000000000000000E+20
 30
1.000000000000000E+20
  9
$EXTMAX
 10
-1.000000000000000E+20
 20
-1.000000000000000E+20
 30
-1.000000000000000E+20
  9
$LIMMIN
 10
0.0
 20
0.0
  9
$LIMMAX
 10
12.0
 20
9.0
  9
$ORTHOMODE
 70
     0
  9
$REGENMODE
 70
     1
  9
$FILLMODE
 70
     1
  9
$QTEXTMODE
 70
     0
  9
$MIRRTEXT
 70
     1
  9
$DRAGMODE
 70
     2
  9
$LTSCALE
 40
1.0
  9
$OSMODE
 70
    37
  9
$ATTMODE
 70
     1
  9
$TEXTSIZE
 40
0.2
  9
$TRACEWID
 40
0.05
  9
$TEXTSTYLE
  7
STANDARD
  9
$CLAYER
  8
0
  9
$CELTYPE
  6
BYLAYER
  9
$CECOLOR
 62
   256
  9
$CELTSCALE
 40
1.0
  9
$DELOBJ
 70
     1
  9
$DISPSILH
 70
     0
  9
$DIMSCALE
 40
1.0
  9
$DIMASZ
 40
0.18
  9
$DIMEXO
 40
0.0625
  9
$DIMDLI
 40
0.38
  9
$DIMRND
 40
0.0
  9
$DIMDLE
 40
0.0
  9
$DIMEXE
 40
0.18
  9
$DIMTP
 40
0.0
  9
$DIMTM
 40
0.0
  9
$DIMTXT
 40
0.18
  9
$DIMCEN
 40
0.09
  9
$DIMTSZ
 40
0.0
  9
$DIMTOL
 70
     0
  9
$DIMLIM
 70
     0
  9
$DIMTIH
 70
     1
  9
$DIMTOH
 70
     1
  9
$DIMSE1
 70
     0
  9
$DIMSE2
 70
     0
  9
$DIMTAD
 70
     0
  9
$DIMZIN
 70
     0
  9
$DIMBLK
  1

  9
$DIMASO
 70
     1
  9
$DIMSHO
 70
     1
  9
$DIMPOST
  1

  9
$DIMAPOST
  1

  9
$DIMALT
 70
     0
  9
$DIMALTD
 70
     2
  9
$DIMALTF
 40
25.4
  9
$DIMLFAC
 40
1.0
  9
$DIMTOFL
 70
     0
  9
$DIMTVP
 40
0.0
  9
$DIMTIX
 70
     0
  9
$DIMSOXD
 70
     0
  9
$DIMSAH
 70
     0
  9
$DIMBLK1
  1

  9
$DIMBLK2
  1

  9
$DIMSTYLE
  2
STANDARD
  9
$DIMCLRD
 70
     0
  9
$DIMCLRE
 70
     0
  9
$DIMCLRT
 70
     0
  9
$DIMTFAC
 40
1.0
  9
$DIMGAP
 40
0.09
  9
$DIMJUST
 70
     0
  9
$DIMSD1
 70
     0
  9
$DIMSD2
 70
     0
  9
$DIMTOLJ
 70
     1
  9
$DIMTZIN
 70
     0
  9
$DIMALTZ
 70
     0
  9
$DIMALTTZ
 70
     0
  9
$DIMFIT
 70
     3
  9
$DIMUPT
 70
     0
  9
$DIMUNIT
 70
     2
  9
$DIMDEC
 70
     4
  9
$DIMTDEC
 70
     4
  9
$DIMALTU
 70
     2
  9
$DIMALTTD
 70
     2
  9
$DIMTXSTY
  7
STANDARD
  9
$DIMAUNIT
 70
     0
  9
$LUNITS
 70
     2
  9
$LUPREC
 70
     4
  9
$SKETCHINC
 40
0.1
  9
$FILLETRAD
 40
0.5
  9
$AUNITS
 70
     0
  9
$AUPREC
 70
     0
  9
$MENU
  1
.
  9
$ELEVATION
 40
0.0
  9
$PELEVATION
 40
0.0
  9
$THICKNESS
 40
0.0
  9
$LIMCHECK
 70
     0
  9
$CHAMFERA
 40
0.5
  9
$CHAMFERB
 40
0.5
  9
$CHAMFERC
 40
1.0
  9
$CHAMFERD
 40
0.0
  9
$SKPOLY
 70
     0
  9
$TDCREATE
 40
2456912.744884248
  9
$TDUPDATE
 40
2456912.744884248
  9
$TDINDWG
 40
0.0000000116
  9
$TDUSRTIMER
 40
0.0000000116
  9
$USRTIMER
 70
     1
  9
$ANGBASE
 50
0.0
  9
$ANGDIR
 70
     0
  9
$PDMODE
 70
     0
  9
$PDSIZE
 40
0.0
  9
$PLINEWID
 40
0.0
  9
$COORDS
 70
     1
  9
$SPLFRAME
 70
     0
  9
$SPLINETYPE
 70
     6
  9
$SPLINESEGS
 70
     8
  9
$ATTDIA
 70
     0
  9
$ATTREQ
 70
     1
  9
$HANDLING
 70
     1
  9
$HANDSEED
  5
EA
  9
$SURFTAB1
 70
     6
  9
$SURFTAB2
 70
     6
  9
$SURFTYPE
 70
     6
  9
$SURFU
 70
     6
  9
$SURFV
 70
     6
  9
$UCSNAME
  2

  9
$UCSORG
 10
0.0
 20
0.0
 30
0.0
  9
$UCSXDIR
 10
1.0
 20
0.0
 30
0.0
  9
$UCSYDIR
 10
0.0
 20
1.0
 30
0.0
  9
$PUCSNAME
  2

  9
$PUCSORG
 10
0.0
 20
0.0
 30
0.0
  9
$PUCSXDIR
 10
1.0
 20
0.0
 30
0.0
  9
$PUCSYDIR
 10
0.0
 20
1.0
 30
0.0
  9
$USERI1
 70
     0
  9
$USERI2
 70
     0
  9
$USERI3
 70
     0
  9
$USERI4
 70
     0
  9
$USERI5
 70
     0
  9
$USERR1
 40
0.0
  9
$USERR2
 40
0.0
  9
$USERR3
 40
0.0
  9
$USERR4
 40
0.0
  9
$USERR5
 40
0.0
  9
$WORLDVIEW
 70
     1
  9
$SHADEDGE
 70
     3
  9
$SHADEDIF
 70
    70
  9
$TILEMODE
 70
     1
  9
$MAXACTVP
 70
    64
  9
$PINSBASE
 10
0.0
 20
0.0
 30
0.0
  9
$PLIMCHECK
 70
     0
  9
$PEXTMIN
 10
1.000000000000000E+20
 20
1.000000000000000E+20
 30
1.000000000000000E+20
  9
$PEXTMAX
 10
-1.000000000000000E+20
 20
-1.000000000000000E+20
 30
-1.000000000000000E+20
  9
$PLIMMIN
 10
0.0
 20
0.0
  9
$PLIMMAX
 10
12.0
 20
9.0
  9
$UNITMODE
 70
     0
  9
$VISRETAIN
 70
     1
  9
$PLINEGEN
 70
     0
  9
$PSLTSCALE
 70
     1
  9
$TREEDEPTH
 70
  3020
  9
$PICKSTYLE
 70
     1
  9
$CMLSTYLE
  2
STANDARD
  9
$CMLJUST
 70
     0
  9
$CMLSCALE
 40
1.0
  9
$SAVEIMAGES
 70
     1
  0
ENDSEC
  0
SECTION
  2
CLASSES
  0
CLASS
  1
ACDBDICTIONARYWDFLT
  2
AcDbDictionaryWithDefault
  3
ObjectDBX Classes
 90
    32768
280
     0
281
     0
  0
CLASS
  1
VISUALSTYLE
  2
AcDbVisualStyle
  3
ObjectDBX Classes
 90
     4095
280
     0
281
     0
  0
CLASS
  1
MATERIAL
  2
AcDbMaterial
  3
ObjectDBX Classes
 90
     1153
280
     0
281
     0
  0
CLASS
  1
SUN
  2
AcDbSun
  3
SCENEOE
 90
     1024
280
     0
281
     0
  0
CLASS
  1
DICTIONARYVAR
  2
AcDbDictionaryVar
  3
ObjectDBX Classes
 90
        0
280
     0
281
     0
  0
CLASS
  1
XRECORD
  2
AcDbXrecord
  3
AutoCAD 2000
 90
    32768
280
     0
281
     0
  0
CLASS
  1
LWPOLYLINE
  2
AcDbPolyline
  3
AutoCAD 2000
 90
    32768
280
     0
281
     1
  0
CLASS
  1
HATCH
  2
AcDbHatch
  3
AutoCAD 2000
 90
    32768
280
     0
281
     1
  0
CLASS
  1
ACDBPLACEHOLDER
  2
AcDbPlaceHolder
  3
ObjectDBX Classes
 90
        0
280
     0
281
     0
  0
CLASS
  1
LAYOUT
  2
AcDbLayout
  3
ObjectDBX Classes
 90
        0
280
     0
281
     0
  0
ENDSEC
  0
SECTION
  2
TABLES
  0
TABLE
  2
VPORT
  5
8
330
0
100
AcDbSymbolTable
 70
     1
  0
VPORT
  5
29
330
8
100
AcDbSymbolTableRecord
100
AcDbViewportTableRecord
  2
*ACTIVE
 70
     0
 10
0.0
 20
0.0
 11
1.0
 21
1.0
 12
0.0
 22
0.0
 13
0.0
 23
0.0
 14
0.5
 24
0.5
 15
0.5
 25
0.5
 16
0.0
 26
0.0
 36
1.0
 17
-0.0000000000001634
 27
0.0000000000001634
 37
0.0
 40
199.9999999499998
 41
1.0
 42
50.0
 43
0.0
 44
0.0
 50
0.0
 51
0.0
 71
     0
 72
   100
 73
     1
 74
     3
 75
     0
 76
     0
 77
     0
 78
     0
  0
ENDTAB
  0
TABLE
  2
LTYPE
  5
5
330
0
100
AcDbSymbolTable
 70
     1
  0
LTYPE
  5
14
330
5
100
AcDbSymbolTableRecord
100
AcDbLinetypeTableRecord
  2
BYBLOCK
 70
     0
  3

 72
    65
 73
     0
 40
0.0
  0
LTYPE
  5
15
330
5
100
AcDbSymbolTableRecord
100
AcDbLinetypeTableRecord
  2
BYLAYER
 70
     0
  3

 72
    65
 73
     0
 40
0.0
  0
LTYPE
  5
16
330
5
100
AcDbSymbolTableRecord
100
AcDbLinetypeTableRecord
  2
CONTINUOUS
 70
     0
  3
Solid line
 72
    65
 73
     0
 40
0.0
  0
ENDTAB
  0
TABLE
  2
LAYER
  5
2
330
0
100
AcDbSymbolTable
 70
     2
  0
LAYER
  5
10
330
2
100
AcDbSymbolTableRecord
100
AcDbLayerTableRecord
  2
0
 70
     1
 62
     7
  6
CONTINUOUS
  0
LAYER
  5
94
330
2
100
AcDbSymbolTableRecord
100
AcDbLayerTableRecord
  2
EBENE_2
 70
     0
 62
     7
  6
CONTINUOUS
  0
ENDTAB
  0
TABLE
  2
STYLE
  5
3
330
0
100
AcDbSymbolTable
 70
     1
  0
STYLE
  5
11
330
3
100
AcDbSymbolTableRecord
100
AcDbTextStyleTableRecord
  2
STANDARD
 70
     0
 40
0.0
 41
1.0
 50
0.0
 71
     0
 42
0.2
  3
txt
  4

  0
ENDTAB
  0
TABLE
  2
VIEW
  5
6
330
0
100
AcDbSymbolTable
 70
     0
  0
ENDTAB
  0
TABLE
  2
UCS
  5
7
330
0
100
AcDbSymbolTable
 70
     0
  0
ENDTAB
  0
TABLE
  2
APPID
  5
9
330
0
100
AcDbSymbolTable
 70
     1
  0
APPID
  5
12
330
9
100
AcDbSymbolTableRecord
100
AcDbRegAppTableRecord
  2
ACAD
 70
     0
  0
ENDTAB
  0
TABLE
  2
DIMSTYLE
  5
A
330
0
100
AcDbSymbolTable
 70
     1
  0
DIMSTYLE
105
27
330
A
100
AcDbSymbolTableRecord
100
AcDbDimStyleTableRecord
  2
STANDARD
 70
     0
  3

  4

  5

  6

  7

 40
1.0
 41
0.18
 42
0.0625
 43
0.38
 44
0.18
 45
0.0
 46
0.0
 47
0.0
 48
0.0
140
0.18
141
0.09
142
0.0
143
25.4
144
1.0
145
0.0
146
1.0
147
0.09
 71
     0
 72
     0
 73
     1
 74
     1
 75
     0
 76
     0
 77
     0
 78
     0
170
     0
171
     2
172
     0
173
     0
174
     0
175
     0
176
     0
177
     0
178
     0
270
     2
271
     4
272
     4
273
     2
274
     2
340
11
275
     0
280
     0
281
     0
282
     0
283
     1
284
     0
285
     0
286
     0
287
     3
288
     0
  0
ENDTAB
  0
TABLE
  2
BLOCK_RECORD
  5
1
330
0
100
AcDbSymbolTable
 70
    10
  0
BLOCK_RECORD
  5
1F
330
1
100
AcDbSymbolTableRecord
100
AcDbBlockTableRecord
  2
*MODEL_SPACE
  0
BLOCK_RECORD
  5
1B
330
1
100
AcDbSymbolTableRecord
100
AcDbBlockTableRecord
  2
*PAPER_SPACE
  0
BLOCK_RECORD
  5
40
330
1
100
AcDbSymbolTableRecord
100
AcDbBlockTableRecord
  2
BLOCK_2
  0
BLOCK_RECORD
  5
5A
330
1
100
AcDbSymbolTableRecord
100
AcDbBlockTableRecord
  2
BLOCK_3
  0
BLOCK_RECORD
  5
65
330
1
100
AcDbSymbolTableRecord
100
AcDbBlockTableRecord
  2
BLOCK_4
  0
BLOCK_RECORD
  5
70
330
1
100
AcDbSymbolTableRecord
100
AcDbBlockTableRecord
  2
BLOCK_5
  0
BLOCK_RECORD
  5
7B
330
1
100
AcDbSymbolTableRecord
100
AcDbBlockTableRecord
  2
BLOCK_6
  0
BLOCK_RECORD
  5
95
330
1
100
AcDbSymbolTableRecord
100
AcDbBlockTableRecord
  2
BLOCK_7
  0
BLOCK_RECORD
  5
A4
330
1
100
AcDbSymbolTableRecord
100
AcDbBlockTableRecord
  2
BLOCK_8
  0
BLOCK_RECORD
  5
B0
330
1
100
AcDbSymbolTableRecord
100
AcDbBlockTableRecord
  2
BLOCK_9
  0
BLOCK_RECORD
  5
BC
330
1
100
AcDbSymbolTableRecord
100
AcDbBlockTableRecord
  2
BLOCK_10
  0
ENDTAB
  0
ENDSEC
  0
SECTION
  2
BLOCKS
  0
BLOCK
  5
20
330
1F
100
AcDbEntity
  8
0
100
AcDbBlockBegin
  2
*MODEL_SPACE
 70
     0
 10
0.0
 20
0.0
 30
0.0
  3
*MODEL_SPACE
  1

  0
ENDBLK
  5
21
330
1F
100
AcDbEntity
  8
0
100
AcDbBlockEnd
  0
BLOCK
  5
1C
330
1B
100
AcDbEntity
 67
     1
  8
0
100
AcDbBlockBegin
  2
*PAPER_SPACE
 70
     0
 10
0.0
 20
0.0
 30
0.0
  3
*PAPER_SPACE
  1

  0
ENDBLK
  5
1D
330
1B
100
AcDbEntity
 67
     1
  8
0
100
AcDbBlockEnd
  0
BLOCK
  5
42
330
40
100
AcDbEntity
  8
0
100
AcDbBlockBegin
  2
BLOCK_2
 70
     0
 10
0.0
 20
0.0
 30
0.0
  3
BLOCK_2
  1

  0
POLYLINE
  5
44
330
40
100
AcDbEntity
  8
0
 62
     7
100
AcDb2dPolyline
 66
     1
 10
0.0
 20
0.0
 30
0.0
  0
VERTEX
  5
45
330
44
100
AcDbEntity
  8
0
 62
     7
100
AcDbVertex
100
AcDb2dVertex
 10
-9.000555555553666
 20
-26.49999999999997
 30
0.0
  0
VERTEX
  5
46
330
44
100
AcDbEntity
  8
0
 62
     7
100
AcDbVertex
100
AcDb2dVertex
 10
-9.000555555553666
 20
-19.00000000000003
 30
0.0
  0
VERTEX
  5
47
330
44
100
AcDbEntity
  8
0
 62
     7
100
AcDbVertex
100
AcDb2dVertex
 10
8.99944444444665
 20
-19.00000000000003
 30
0.0
  0
VERTEX
  5
48
330
44
100
AcDbEntity
  8
0
 62
     7
100
AcDbVertex
100
AcDb2dVertex
 10
8.99944444444665
 20
-26.49999999999997
 30
0.0
  0
VERTEX
  5
49
330
44
100
AcDbEntity
  8
0
 62
     7
100
AcDbVertex
100
AcDb2dVertex
 10
7.499444444446276
 20
-27.99999999999971
 30
0.0
  0
VERTEX
  5
4A
330
44
100
AcDbEntity
  8
0
 62
     7
100
AcDbVertex
100
AcDb2dVertex
 10
3.692444444446632
 20
-27.99999999999971
 30
0.0
  0
VERTEX
  5
4B
330
44
100
AcDbEntity
  8
0
 62
     7
100
AcDbVertex
100
AcDb2dVertex
 10
4.070444444446447
 20
-27.0319999999999
 30
0.0
  0
VERTEX
  5
4C
330
44
100
AcDbEntity
  8
0
 62
     7
100
AcDbVertex
100
AcDb2dVertex
 10
4.19944444444648
 20
-26.00000000000028
 30
0.0
  0
VERTEX
  5
4D
330
44
100
AcDbEntity
  8
0
 62
     7
100
AcDbVertex
100
AcDb2dVertex
 10
3.879444444446084
 20
-24.39300000000007
 30
0.0
  0
VERTEX
  5
4E
330
44
100
AcDbEntity
  8
0
 62
     7
100
AcDbVertex
100
AcDb2dVertex
 10
2.969444444446341
 20
-23.03000000000027
 30
0.0
  0
VERTEX
  5
4F
330
44
100
AcDbEntity
  8
0
 62
     7
100
AcDbVertex
100
AcDb2dVertex
 10
1.60644444444654
 20
-22.11999999999988
 30
0.0
  0
VERTEX
  5
50
330
44
100
AcDbEntity
  8
0
 62
     7
100
AcDbVertex
100
AcDb2dVertex
 10
-0.0005555555536679
 20
-21.80000000000013
 30
0.0
  0
VERTEX
  5
51
330
44
100
AcDbEntity
  8
0
 62
     7
100
AcDbVertex
100
AcDb2dVertex
 10
-1.607555555553555
 20
-22.11999999999988
 30
0.0
  0
VERTEX
  5
52
330
44
100
AcDbEntity
  8
0
 62
     7
100
AcDbVertex
100
AcDb2dVertex
 10
-2.970555555553676
 20
-23.03000000000027
 30
0.0
  0
VERTEX
  5
53
330
44
100
AcDbEntity
  8
0
 62
     7
100
AcDbVertex
100
AcDb2dVertex
 10
-3.880555555553741
 20
-24.39300000000007
 30
0.0
  0
VERTEX
  5
54
330
44
100
AcDbEntity
  8
0
 62
     7
100
AcDbVertex
100
AcDb2dVertex
 10
-4.200555555553816
 20
-26.00000000000028
 30
0.0
  0
VERTEX
  5
55
330
44
100
AcDbEntity
  8
0
 62
     7
100
AcDbVertex
100
AcDb2dVertex
 10
-4.071555555553783
 20
-27.0319999999999
 30
0.0
  0
VERTEX
  5
56
330
44
100
AcDbEntity
  8
0
 62
     7
100
AcDbVertex
100
AcDb2dVertex
 10
-3.693555555553647
 20
-27.99999999999971
 30
0.0
  0
VERTEX
  5
57
330
44
100
AcDbEntity
  8
0
 62
     7
100
AcDbVertex
100
AcDb2dVertex
 10
-7.500555555553611
 20
-27.99999999999971
 30
0.0
  0
VERTEX
  5
58
330
44
100
AcDbEntity
  8
0
 62
     7
100
AcDbVertex
100
AcDb2dVertex
 10
-9.000555555553666
 20
-26.49999999999997
 30
0.0
  0
SEQEND
  5
59
330
44
100
AcDbEntity
  8
0
 62
     7
  0
ENDBLK
  5
43
330
40
100
AcDbEntity
  8
0
100
AcDbBlockEnd
  0
BLOCK
  5
5C
330
5A
100
AcDbEntity
  8
0
100
AcDbBlockBegin
  2
BLOCK_3
 70
     0
 10
0.0
 20
0.0
 30
0.0
  3
BLOCK_3
  1

  0
POLYLINE
  5
5E
330
5A
100
AcDbEntity
  8
0
 62
     7
100
AcDb2dPolyline
 66
     1
 10
0.0
 20
0.0
 30
0.0
  0
VERTEX
  5
5F
330
5E
100
AcDbEntity
  8
0
 62
     7
100
AcDbVertex
100
AcDb2dVertex
 10
-8.99944444444697
 20
-16.99999999999996
 30
0.0
  0
VERTEX
  5
60
330
5E
100
AcDbEntity
  8
0
 62
     7
100
AcDbVertex
100
AcDb2dVertex
 10
-8.99944444444697
 20
-11.31800000000001
 30
0.0
  0
VERTEX
  5
61
330
5E
100
AcDbEntity
  8
0
 62
     7
100
AcDbVertex
100
AcDb2dVertex
 10
9.000555555553344
 20
-11.31800000000001
 30
0.0
  0
VERTEX
  5
62
330
5E
100
AcDbEntity
  8
0
 62
     7
100
AcDbVertex
100
AcDb2dVertex
 10
9.000555555553344
 20
-16.99999999999996
 30
0.0
  0
VERTEX
  5
63
330
5E
100
AcDbEntity
  8
0
 62
     7
100
AcDbVertex
100
AcDb2dVertex
 10
-8.99944444444697
 20
-16.99999999999996
 30
0.0
  0
SEQEND
  5
64
330
5E
100
AcDbEntity
  8
0
 62
     7
  0
ENDBLK
  5
5D
330
5A
100
AcDbEntity
  8
0
100
AcDbBlockEnd
  0
BLOCK
  5
67
330
65
100
AcDbEntity
  8
0
100
AcDbBlockBegin
  2
BLOCK_4
 70
     0
 10
0.0
 20
0.0
 30
0.0
  3
BLOCK_4
  1

  0
POLYLINE
  5
69
330
65
100
AcDbEntity
  8
0
 62
     7
100
AcDb2dPolyline
 66
     1
 10
0.0
 20
0.0
 30
0.0
  0
VERTEX
  5
6A
330
69
100
AcDbEntity
  8
0
 62
     7
100
AcDbVertex
100
AcDb2dVertex
 10
-8.99944444444697
 20
-0.6819999999997738
 30
0.0
  0
VERTEX
  5
6B
330
69
100
AcDbEntity
  8
0
 62
     7
100
AcDbVertex
100
AcDb2dVertex
 10
-8.99944444444697
 20
10.68200000000013
 30
0.0
  0
VERTEX
  5
6C
330
69
100
AcDbEntity
  8
0
 62
     7
100
AcDbVertex
100
AcDb2dVertex
 10
9.000555555553344
 20
10.68200000000013
 30
0.0
  0
VERTEX
  5
6D
330
69
100
AcDbEntity
  8
0
 62
     7
100
AcDbVertex
100
AcDb2dVertex
 10
9.000555555553344
 20
-0.6819999999997738
 30
0.0
  0
VERTEX
  5
6E
330
69
100
AcDbEntity
  8
0
 62
     7
100
AcDbVertex
100
AcDb2dVertex
 10
-8.99944444444697
 20
-0.6819999999997738
 30
0.0
  0
SEQEND
  5
6F
330
69
100
AcDbEntity
  8
0
 62
     7
  0
ENDBLK
  5
68
330
65
100
AcDbEntity
  8
0
100
AcDbBlockEnd
  0
BLOCK
  5
72
330
70
100
AcDbEntity
  8
0
100
AcDbBlockBegin
  2
BLOCK_5
 70
     0
 10
0.0
 20
0.0
 30
0.0
  3
BLOCK_5
  1

  0
POLYLINE
  5
74
330
70
100
AcDbEntity
  8
0
 62
     7
100
AcDb2dPolyline
 66
     1
 10
0.0
 20
0.0
 30
0.0
  0
VERTEX
  5
75
330
74
100
AcDbEntity
  8
0
 62
     7
100
AcDbVertex
100
AcDb2dVertex
 10
-9.000555555553666
 20
21.31800000000004
 30
0.0
  0
VERTEX
  5
76
330
74
100
AcDbEntity
  8
0
 62
     7
100
AcDbVertex
100
AcDb2dVertex
 10
-9.000555555553666
 20
28.00000000000002
 30
0.0
  0
VERTEX
  5
77
330
74
100
AcDbEntity
  8
0
 62
     7
100
AcDbVertex
100
AcDb2dVertex
 10
8.99944444444665
 20
28.00000000000002
 30
0.0
  0
VERTEX
  5
78
330
74
100
AcDbEntity
  8
0
 62
     7
100
AcDbVertex
100
AcDb2dVertex
 10
8.99944444444665
 20
21.31800000000004
 30
0.0
  0
VERTEX
  5
79
330
74
100
AcDbEntity
  8
0
 62
     7
100
AcDbVertex
100
AcDb2dVertex
 10
-9.000555555553666
 20
21.31800000000004
 30
0.0
  0
SEQEND
  5
7A
330
74
100
AcDbEntity
  8
0
 62
     7
  0
ENDBLK
  5
73
330
70
100
AcDbEntity
  8
0
100
AcDbBlockEnd
  0
BLOCK
  5
7D
330
7B
100
AcDbEntity
  8
0
100
AcDbBlockBegin
  2
BLOCK_6
 70
     0
 10
0.0
 20
0.0
 30
0.0
  3
BLOCK_6
  1

  0
POLYLINE
  5
7F
330
7B
100
AcDbEntity
  8
0
 62
     7
100
AcDb2dPolyline
 66
     1
 10
0.0
 20
0.0
 30
0.0
  0
VERTEX
  5
80
330
7F
100
AcDbEntity
  8
0
 62
     7
100
AcDbVertex
100
AcDb2dVertex
 10
-5.399166694571244
 20
4.999999999999535
 30
0.0
  0
VERTEX
  5
81
330
7F
100
AcDbEntity
  8
0
 62
     7
100
AcDbVertex
100
AcDb2dVertex
 10
-5.073183463297017
 20
6.846999999999879
 30
0.0
  0
VERTEX
  5
82
330
7F
100
AcDbEntity
  8
0
 62
     7
100
AcDbVertex
100
AcDb2dVertex
 10
-4.136231660523261
 20
8.470999999999629
 30
0.0
  0
VERTEX
  5
83
330
7F
100
AcDbEntity
  8
0
 62
     7
100
AcDbVertex
100
AcDb2dVertex
 10
-2.699305576653305
 20
9.677000000000076
 30
0.0
  0
VERTEX
  5
84
330
7F
100
AcDbEntity
  8
0
 62
     7
100
AcDbVertex
100
AcDb2dVertex
 10
-0.9373962100712359
 20
10.31799999999997
 30
0.0
  0
VERTEX
  5
85
330
7F
100
AcDbEntity
  8
0
 62
     7
100
AcDbVertex
100
AcDb2dVertex
 10
0.9385072926005049
 20
10.31799999999997
 30
0.0
  0
VERTEX
  5
86
330
7F
100
AcDbEntity
  8
0
 62
     7
100
AcDbVertex
100
AcDb2dVertex
 10
2.700416659182574
 20
9.677000000000076
 30
0.0
  0
VERTEX
  5
87
330
7F
100
AcDbEntity
  8
0
 62
     7
100
AcDbVertex
100
AcDb2dVertex
 10
4.137342743052851
 20
8.470999999999629
 30
0.0
  0
VERTEX
  5
88
330
7F
100
AcDbEntity
  8
0
 62
     7
100
AcDbVertex
100
AcDb2dVertex
 10
5.074294545826607
 20
6.846999999999879
 30
0.0
  0
VERTEX
  5
89
330
7F
100
AcDbEntity
  8
0
 62
     7
100
AcDbVertex
100
AcDb2dVertex
 10
5.400277777101476
 20
4.999999999999535
 30
0.0
  0
VERTEX
  5
8A
330
7F
100
AcDbEntity
  8
0
 62
     7
100
AcDbVertex
100
AcDb2dVertex
 10
5.074294545826607
 20
3.152999999999832
 30
0.0
  0
VERTEX
  5
8B
330
7F
100
AcDbEntity
  8
0
 62
     7
100
AcDbVertex
100
AcDb2dVertex
 10
4.137342743052851
 20
1.529000000000083
 30
0.0
  0
VERTEX
  5
8C
330
7F
100
AcDbEntity
  8
0
 62
     7
100
AcDbVertex
100
AcDb2dVertex
 10
2.700416659182574
 20
0.322999999999636
 30
0.0
  0
VERTEX
  5
8D
330
7F
100
AcDbEntity
  8
0
 62
     7
100
AcDbVertex
100
AcDb2dVertex
 10
0.9385072926005049
 20
-0.3180000000002615
 30
0.0
  0
VERTEX
  5
8E
330
7F
100
AcDbEntity
  8
0
 62
     7
100
AcDbVertex
100
AcDb2dVertex
 10
-0.9373962100712359
 20
-0.3180000000002615
 30
0.0
  0
VERTEX
  5
8F
330
7F
100
AcDbEntity
  8
0
 62
     7
100
AcDbVertex
100
AcDb2dVertex
 10
-2.699305576653305
 20
0.322999999999636
 30
0.0
  0
VERTEX
  5
90
330
7F
100
AcDbEntity
  8
0
 62
     7
100
AcDbVertex
100
AcDb2dVertex
 10
-4.136231660523261
 20
1.529000000000083
 30
0.0
  0
VERTEX
  5
91
330
7F
100
AcDbEntity
  8
0
 62
     7
100
AcDbVertex
100
AcDb2dVertex
 10
-5.073183463297017
 20
3.152999999999832
 30
0.0
  0
VERTEX
  5
92
330
7F
100
AcDbEntity
  8
0
 62
     7
100
AcDbVertex
100
AcDb2dVertex
 10
-5.399166694571244
 20
4.999999999999535
 30
0.0
  0
SEQEND
  5
93
330
7F
100
AcDbEntity
  8
0
 62
     7
  0
ENDBLK
  5
7E
330
7B
100
AcDbEntity
  8
0
100
AcDbBlockEnd
  0
BLOCK
  5
97
330
95
100
AcDbEntity
  8
0
100
AcDbBlockBegin
  2
BLOCK_7
 70
     0
 10
0.0
 20
0.0
 30
0.0
  3
BLOCK_7
  1

  0
SPLINE
  5
99
330
95
100
AcDbEntity
  8
EBENE_2
 62
     7
100
AcDbSpline
210
0.0
220
0.0
230
1.0
 70
    11
 71
     3
 72
    17
 73
    13
 74
     0
 42
0.0000000001
 43
0.0000000001
 12
1.0
 22
0.0
 32
0.0
 13
1.0
 23
0.0
 33
0.0
 40
0.0
 40
0.0
 40
0.0
 40
0.0
 40
1.0
 40
1.0
 40
1.0
 40
2.0
 40
2.0
 40
2.0
 40
3.0
 40
3.0
 40
3.0
 40
4.0
 40
4.0
 40
4.0
 40
4.0
 10
-4.10000000448915
 20
-28.00000083544244
 30
0.0
 10
-4.100000004692569
 20
-30.26436830905729
 30
0.0
 10
-2.264367479496337
 20
-32.10000083458304
 30
0.0
 10
-0.0000000058824551
 20
-32.10000083478581
 30
0.0
 10
2.264367467731748
 20
-32.10000083498923
 30
0.0
 10
4.099999993257492
 20
-30.26436830979332
 30
0.0
 10
4.09999999346091
 20
-28.00000083617912
 30
0.0
 10
4.099999993664329
 20
-25.73563336256491
 30
0.0
 10
2.264367468468098
 20
-23.90000083703917
 30
0.0
 10
-0.0000000051461054
 20
-23.90000083683575
 30
0.0
 10
-2.264367478759988
 20
-23.90000083663297
 30
0.0
 10
-4.100000004285731
 20
-25.73563336182888
 30
0.0
 10
-4.10000000448915
 20
-28.00000083544244
 30
0.0
  0
SPLINE
  5
9A
330
95
100
AcDbEntity
  8
EBENE_2
 62
     7
100
AcDbSpline
210
0.0
220
0.0
230
1.0
 70
    11
 71
     3
 72
    17
 73
    13
 74
     0
 42
0.0000000001
 43
0.0000000001
 12
1.0
 22
0.0
 32
0.0
 13
1.0
 23
0.0
 33
0.0
 40
0.0
 40
0.0
 40
0.0
 40
0.0
 40
1.0
 40
1.0
 40
1.0
 40
2.0
 40
2.0
 40
2.0
 40
3.0
 40
3.0
 40
3.0
 40
4.0
 40
4.0
 40
4.0
 40
4.0
 10
-5.350000015681228
 20
2.999999156919224
 30
0.0
 10
-5.350000015946571
 20
0.0452757462276059
 30
0.0
 10
-2.954723428191071
 20
-2.350000841958473
 30
0.0
 10
-0.0000000174994537
 20
-2.350000842224136
 30
0.0
 10
2.954723393192164
 20
-2.350000842489158
 30
0.0
 10
5.349999981378564
 20
0.0452757452669824
 30
0.0
 10
5.349999981643906
 20
2.9999991559586
 30
0.0
 10
5.349999981908928
 20
5.954722566650218
 30
0.0
 10
2.954723394153108
 20
8.349999154836297
 30
0.0
 10
-0.0000000165385093
 20
8.349999155101319
 30
0.0
 10
-2.954723427230127
 20
8.349999155366982
 30
0.0
 10
-5.350000015416206
 20
5.954722567610841
 30
0.0
 10
-5.350000015681228
 20
2.999999156919224
 30
0.0
  0
SPLINE
  5
9B
330
95
100
AcDbEntity
  8
EBENE_2
 62
     7
100
AcDbSpline
210
0.0
220
0.0
230
1.0
 70
    11
 71
     3
 72
    17
 73
    13
 74
     0
 42
0.0000000001
 43
0.0000000001
 12
1.0
 22
0.0
 32
0.0
 13
1.0
 23
0.0
 33
0.0
 40
0.0
 40
0.0
 40
0.0
 40
0.0
 40
1.0
 40
1.0
 40
1.0
 40
2.0
 40
2.0
 40
2.0
 40
3.0
 40
3.0
 40
3.0
 40
4.0
 40
4.0
 40
4.0
 40
4.0
 10
-5.350000000405261
 20
13.99999915416929
 30
0.0
 10
-5.350000000670604
 20
11.04527574347767
 30
0.0
 10
-2.954723412914784
 20
8.649999155291592
 30
0.0
 10
-0.0000000022231663
 20
8.64999915502593
 30
0.0
 10
2.954723408468451
 20
8.649999154760907
 30
0.0
 10
5.349999996654209
 20
11.04527574251705
 30
0.0
 10
5.349999996919552
 20
13.99999915320867
 30
0.0
 10
5.349999997184895
 20
16.95472256390028
 30
0.0
 10
2.954723409429075
 20
19.34999915208636
 30
0.0
 10
-0.0000000012625429
 20
19.34999915235138
 30
0.0
 10
-2.954723411954161
 20
19.34999915261705
 30
0.0
 10
-5.350000000139919
 20
16.95472256486091
 30
0.0
 10
-5.350000000405261
 20
13.99999915416929
 30
0.0
  0
SPLINE
  5
9C
330
95
100
AcDbEntity
  8
EBENE_2
 62
     7
100
AcDbSpline
210
0.0
220
0.0
230
1.0
 70
    11
 71
     3
 72
    17
 73
    13
 74
     0
 42
0.0000000001
 43
0.0000000001
 12
1.0
 22
0.0
 32
0.0
 13
1.0
 23
0.0
 33
0.0
 40
0.0
 40
0.0
 40
0.0
 40
0.0
 40
1.0
 40
1.0
 40
1.0
 40
2.0
 40
2.0
 40
2.0
 40
3.0
 40
3.0
 40
3.0
 40
4.0
 40
4.0
 40
4.0
 40
4.0
 10
-5.350000002380732
 20
-8.000000840330843
 30
0.0
 10
-5.350000002646074
 20
-10.95472425102246
 30
0.0
 10
-2.954723414890255
 20
-13.35000083920854
 30
0.0
 10
-0.0000000041986368
 20
-13.3500008394742
 30
0.0
 10
2.954723406492981
 20
-13.35000083973922
 30
0.0
 10
5.349999994678739
 20
-10.95472425198308
 30
0.0
 10
5.349999994944081
 20
-8.000000841291467
 30
0.0
 10
5.349999995209425
 20
-5.045277430599848
 30
0.0
 10
2.954723407453605
 20
-2.650000842413769
 30
0.0
 10
-0.0000000032380134
 20
-2.650000842148748
 30
0.0
 10
-2.954723413929631
 20
-2.650000841883084
 30
0.0
 10
-5.350000002115389
 20
-5.045277429639224
 30
0.0
 10
-5.350000002380732
 20
-8.000000840330843
 30
0.0
  0
POLYLINE
  5
9D
330
95
100
AcDbEntity
  8
EBENE_2
 62
     7
100
AcDb2dPolyline
 66
     1
 10
0.0
 20
0.0
 30
0.0
  0
VERTEX
  5
9E
330
9D
100
AcDbEntity
  8
EBENE_2
 62
     7
100
AcDbVertex
100
AcDb2dVertex
 10
-9.000000003443995
 20
-30.00000084150272
 30
0.0
  0
VERTEX
  5
9F
330
9D
100
AcDbEntity
  8
EBENE_2
 62
     7
100
AcDbVertex
100
AcDb2dVertex
 10
8.999999992056084
 20
-30.00000084311852
 30
0.0
  0
VERTEX
  5
A0
330
9D
100
AcDbEntity
  8
EBENE_2
 62
     7
100
AcDbVertex
100
AcDb2dVertex
 10
8.999999997084437
 20
25.99999915688089
 30
0.0
  0
VERTEX
  5
A1
330
9D
100
AcDbEntity
  8
EBENE_2
 62
     7
100
AcDbVertex
100
AcDb2dVertex
 10
-8.999999998415642
 20
25.99999915849733
 30
0.0
  0
VERTEX
  5
A2
330
9D
100
AcDbEntity
  8
EBENE_2
 62
     7
100
AcDbVertex
100
AcDb2dVertex
 10
-9.000000003443995
 20
-30.00000084150272
 30
0.0
  0
SEQEND
  5
A3
330
9D
100
AcDbEntity
  8
EBENE_2
 62
     7
  0
INSERT
  5
A5
330
95
100
AcDbEntity
  8
EBENE_2
100
AcDbBlockReference
  2
BLOCK_8
 10
0.0
 20
0.0
 30
0.0
  0
INSERT
  5
B1
330
95
100
AcDbEntity
  8
EBENE_2
100
AcDbBlockReference
  2
BLOCK_9
 10
0.0
 20
0.0
 30
0.0
  0
INSERT
  5
BD
330
95
100
AcDbEntity
  8
EBENE_2
100
AcDbBlockReference
  2
BLOCK_10
 10
0.0
 20
0.0
 30
0.0
  0
POLYLINE
  5
C8
330
95
100
AcDbEntity
  8
EBENE_2
 62
     7
100
AcDb2dPolyline
 66
     1
 10
0.0
 20
0.0
 30
0.0
  0
VERTEX
  5
C9
330
C8
100
AcDbEntity
  8
EBENE_2
 62
     7
100
AcDbVertex
100
AcDb2dVertex
 10
4.999999993235706
 20
-28.00000132861511
 30
0.0
  0
VERTEX
  5
CA
330
C8
100
AcDbEntity
  8
EBENE_2
 62
     7
100
AcDbVertex
100
AcDb2dVertex
 10
-5.000000004264588
 20
-28.00000132771673
 30
0.0
  0
SEQEND
  5
CB
330
C8
100
AcDbEntity
  8
EBENE_2
 62
     7
  0
POLYLINE
  5
CC
330
95
100
AcDbEntity
  8
EBENE_2
 62
     7
100
AcDb2dPolyline
 66
     1
 10
0.0
 20
0.0
 30
0.0
  0
VERTEX
  5
CD
330
CC
100
AcDbEntity
  8
EBENE_2
 62
     7
100
AcDbVertex
100
AcDb2dVertex
 10
-0.0000000048396942
 20
-23.00000152412458
 30
0.0
  0
VERTEX
  5
CE
330
CC
100
AcDbEntity
  8
EBENE_2
 62
     7
100
AcDbVertex
100
AcDb2dVertex
 10
-0.0000000061866204
 20
-33.00000152162488
 30
0.0
  0
SEQEND
  5
CF
330
CC
100
AcDbEntity
  8
EBENE_2
 62
     7
  0
POLYLINE
  5
D0
330
95
100
AcDbEntity
  8
EBENE_2
 62
     7
100
AcDb2dPolyline
 66
     1
 10
0.0
 20
0.0
 30
0.0
  0
VERTEX
  5
D1
330
D0
100
AcDbEntity
  8
EBENE_2
 62
     7
100
AcDbVertex
100
AcDb2dVertex
 10
14.99999999558564
 20
25.9999999908073
 30
0.0
  0
VERTEX
  5
D2
330
D0
100
AcDbEntity
  8
EBENE_2
 62
     7
100
AcDbVertex
100
AcDb2dVertex
 10
-14.9999999969146
 20
25.99999999350115
 30
0.0
  0
SEQEND
  5
D3
330
D0
100
AcDbEntity
  8
EBENE_2
 62
     7
  0
POLYLINE
  5
D4
330
95
100
AcDbEntity
  8
EBENE_2
 62
     7
100
AcDb2dPolyline
 66
     1
 10
0.0
 20
0.0
 30
0.0
  0
VERTEX
  5
D5
330
D4
100
AcDbEntity
  8
EBENE_2
 62
     7
100
AcDbVertex
100
AcDb2dVertex
 10
14.99999999387006
 20
-30.00000155286076
 30
0.0
  0
VERTEX
  5
D6
330
D4
100
AcDbEntity
  8
EBENE_2
 62
     7
100
AcDbVertex
100
AcDb2dVertex
 10
-14.99999999863018
 20
-30.0000015501669
 30
0.0
  0
SEQEND
  5
D7
330
D4
100
AcDbEntity
  8
EBENE_2
 62
     7
  0
ENDBLK
  5
98
330
95
100
AcDbEntity
  8
0
100
AcDbBlockEnd
  0
BLOCK
  5
A6
330
A4
100
AcDbEntity
  8
0
100
AcDbBlockBegin
  2
BLOCK_8
 70
     0
 10
0.0
 20
0.0
 30
0.0
  3
BLOCK_8
  1

  0
POLYLINE
  5
A8
330
A4
100
AcDbEntity
  8
EBENE_2
 62
     7
100
AcDb2dPolyline
 66
     1
 10
0.0
 20
0.0
 30
0.0
  0
VERTEX
  5
A9
330
A8
100
AcDbEntity
  8
EBENE_2
 62
     7
100
AcDbVertex
100
AcDb2dVertex
 10
4.999999996019397
 20
2.999999357698511
 30
0.0
  0
VERTEX
  5
AA
330
A8
100
AcDbEntity
  8
EBENE_2
 62
     7
100
AcDbVertex
100
AcDb2dVertex
 10
-5.000000001480897
 20
2.999999358596248
 30
0.0
  0
SEQEND
  5
AB
330
A8
100
AcDbEntity
  8
EBENE_2
 62
     7
  0
POLYLINE
  5
AC
330
A4
100
AcDbEntity
  8
EBENE_2
 62
     7
100
AcDb2dPolyline
 66
     1
 10
0.0
 20
0.0
 30
0.0
  0
VERTEX
  5
AD
330
AC
100
AcDbEntity
  8
EBENE_2
 62
     7
100
AcDbVertex
100
AcDb2dVertex
 10
-0.0000000020560037
 20
7.999999162187749
 30
0.0
  0
VERTEX
  5
AE
330
AC
100
AcDbEntity
  8
EBENE_2
 62
     7
100
AcDbVertex
100
AcDb2dVertex
 10
-0.0000000034032509
 20
-2.000000835312544
 30
0.0
  0
SEQEND
  5
AF
330
AC
100
AcDbEntity
  8
EBENE_2
 62
     7
  0
ENDBLK
  5
A7
330
A4
100
AcDbEntity
  8
0
100
AcDbBlockEnd
  0
BLOCK
  5
B2
330
B0
100
AcDbEntity
  8
0
100
AcDbBlockBegin
  2
BLOCK_9
 70
     0
 10
0.0
 20
0.0
 30
0.0
  3
BLOCK_9
  1

  0
POLYLINE
  5
B4
330
B0
100
AcDbEntity
  8
EBENE_2
 62
     7
100
AcDb2dPolyline
 66
     1
 10
0.0
 20
0.0
 30
0.0
  0
VERTEX
  5
B5
330
B4
100
AcDbEntity
  8
EBENE_2
 62
     7
100
AcDbVertex
100
AcDb2dVertex
 10
4.999999995031501
 20
-8.000000777304447
 30
0.0
  0
VERTEX
  5
B6
330
B4
100
AcDbEntity
  8
EBENE_2
 62
     7
100
AcDbVertex
100
AcDb2dVertex
 10
-5.000000002468792
 20
-8.00000077640671
 30
0.0
  0
SEQEND
  5
B7
330
B4
100
AcDbEntity
  8
EBENE_2
 62
     7
  0
POLYLINE
  5
B8
330
B0
100
AcDbEntity
  8
EBENE_2
 62
     7
100
AcDb2dPolyline
 66
     1
 10
0.0
 20
0.0
 30
0.0
  0
VERTEX
  5
B9
330
B8
100
AcDbEntity
  8
EBENE_2
 62
     7
100
AcDbVertex
100
AcDb2dVertex
 10
-0.0000000030438994
 20
-3.000000972815208
 30
0.0
  0
VERTEX
  5
BA
330
B8
100
AcDbEntity
  8
EBENE_2
 62
     7
100
AcDbVertex
100
AcDb2dVertex
 10
-0.0000000043908257
 20
-13.0000009703155
 30
0.0
  0
SEQEND
  5
BB
330
B8
100
AcDbEntity
  8
EBENE_2
 62
     7
  0
ENDBLK
  5
B3
330
B0
100
AcDbEntity
  8
0
100
AcDbBlockEnd
  0
BLOCK
  5
BE
330
BC
100
AcDbEntity
  8
0
100
AcDbBlockBegin
  2
BLOCK_10
 70
     0
 10
0.0
 20
0.0
 30
0.0
  3
BLOCK_10
  1

  0
POLYLINE
  5
C0
330
BC
100
AcDbEntity
  8
EBENE_2
 62
     7
100
AcDb2dPolyline
 66
     1
 10
0.0
 20
0.0
 30
0.0
  0
VERTEX
  5
C1
330
C0
100
AcDbEntity
  8
EBENE_2
 62
     7
100
AcDbVertex
100
AcDb2dVertex
 10
4.999999997006971
 20
13.99999999735413
 30
0.0
  0
VERTEX
  5
C2
330
C0
100
AcDbEntity
  8
EBENE_2
 62
     7
100
AcDbVertex
100
AcDb2dVertex
 10
-5.000000000493322
 20
13.99999999825186
 30
0.0
  0
SEQEND
  5
C3
330
C0
100
AcDbEntity
  8
EBENE_2
 62
     7
  0
POLYLINE
  5
C4
330
BC
100
AcDbEntity
  8
EBENE_2
 62
     7
100
AcDb2dPolyline
 66
     1
 10
0.0
 20
0.0
 30
0.0
  0
VERTEX
  5
C5
330
C4
100
AcDbEntity
  8
EBENE_2
 62
     7
100
AcDbVertex
100
AcDb2dVertex
 10
-0.0000000010684289
 20
18.99999980184401
 30
0.0
  0
VERTEX
  5
C6
330
C4
100
AcDbEntity
  8
EBENE_2
 62
     7
100
AcDbVertex
100
AcDb2dVertex
 10
-0.0000000024153552
 20
8.999999804343073
 30
0.0
  0
SEQEND
  5
C7
330
C4
100
AcDbEntity
  8
EBENE_2
 62
     7
  0
ENDBLK
  5
BF
330
BC
100
AcDbEntity
  8
0
100
AcDbBlockEnd
  0
ENDSEC
  0
SECTION
  2
ENTITIES
  0
INSERT
  5
41
330
1F
100
AcDbEntity
  8
0
100
AcDbBlockReference
  2
BLOCK_2
 10
0.0
 20
0.0
 30
0.0
  0
INSERT
  5
5B
330
1F
100
AcDbEntity
  8
0
100
AcDbBlockReference
  2
BLOCK_3
 10
0.0
 20
0.0
 30
0.0
  0
INSERT
  5
66
330
1F
100
AcDbEntity
  8
0
100
AcDbBlockReference
  2
BLOCK_4
 10
0.0
 20
0.0
 30
0.0
  0
INSERT
  5
71
330
1F
100
AcDbEntity
  8
0
100
AcDbBlockReference
  2
BLOCK_5
 10
0.0
 20
0.0
 30
0.0
  0
INSERT
  5
7C
330
1F
100
AcDbEntity
  8
0
100
AcDbBlockReference
  2
BLOCK_6
 10
0.0
 20
0.0
 30
0.0
  0
INSERT
  5
96
330
1F
100
AcDbEntity
  8
EBENE_2
100
AcDbBlockReference
  2
BLOCK_7
 10
0.0
 20
0.0
 30
0.0
  0
POLYLINE
  5
D8
330
1F
100
AcDbEntity
  8
EBENE_2
 62
     7
100
AcDb2dPolyline
 66
     1
 10
0.0
 20
0.0
 30
0.0
  0
VERTEX
  5
D9
330
D8
100
AcDbEntity
  8
EBENE_2
 62
     7
100
AcDbVertex
100
AcDb2dVertex
 10
8.999999829532326
 20
25.99999720305523
 30
0.0
  0
VERTEX
  5
DA
330
D8
100
AcDbEntity
  8
EBENE_2
 62
     7
100
AcDbVertex
100
AcDb2dVertex
 10
-9.000000165967753
 20
25.99999720305523
 30
0.0
  0
VERTEX
  5
DB
330
D8
100
AcDbEntity
  8
EBENE_2
 62
     7
100
AcDbVertex
100
AcDb2dVertex
 10
-9.000000165967753
 20
-86.00000276894465
 30
0.0
  0
VERTEX
  5
DC
330
D8
100
AcDbEntity
  8
EBENE_2
 62
     7
100
AcDbVertex
100
AcDb2dVertex
 10
8.999999829532326
 20
-86.00000276894465
 30
0.0
  0
VERTEX
  5
DD
330
D8
100
AcDbEntity
  8
EBENE_2
 62
     7
100
AcDbVertex
100
AcDb2dVertex
 10
8.999999829532326
 20
25.99999720305523
 30
0.0
  0
SEQEND
  5
DE
330
D8
100
AcDbEntity
  8
EBENE_2
 62
     7
  0
ENDSEC
  0
SECTION
  2
OBJECTS
  0
DICTIONARY
  5
C
330
0
100
AcDbDictionary
  3
ACAD_GROUP
350
D
  3
ACAD_LAYOUT
350
1A
  3
ACAD_MATERIAL
350
3B
  3
ACAD_MLEADERSTYLE
350
E1
  3
ACAD_MLINESTYLE
350
17
  3
ACAD_PLOTSETTINGS
350
19
  3
ACAD_VISUALSTYLE
350
2A
  3
ACDBVARIABLEDICTIONARY
350
DF
1001
ACAD
1000
TREAT_AS_HARD
1070
     0
  0
DICTIONARY
  5
D
102
{ACAD_REACTORS
330
C
102
}
330
C
100
AcDbDictionary
1001
ACAD
1000
TREAT_AS_HARD
1070
     0
  0
DICTIONARY
  5
1A
102
{ACAD_REACTORS
330
C
102
}
330
C
100
AcDbDictionary
1001
ACAD
1000
TREAT_AS_HARD
1070
     0
  0
DICTIONARY
  5
3B
102
{ACAD_REACTORS
330
C
102
}
330
C
100
AcDbDictionary
  3
BYBLOCK
350
3D
  3
BYLAYER
350
3C
  3
GLOBAL
350
3E
1001
ACAD
1000
TREAT_AS_HARD
1070
     0
  0
DICTIONARY
  5
E1
102
{ACAD_REACTORS
330
C
102
}
330
C
100
AcDbDictionary
1001
ACAD
1000
TREAT_AS_HARD
1070
     0
  0
DICTIONARY
  5
17
102
{ACAD_REACTORS
330
C
102
}
330
C
100
AcDbDictionary
  3
STANDARD
350
18
1001
ACAD
1000
TREAT_AS_HARD
1070
     0
  0
DICTIONARY
  5
19
102
{ACAD_REACTORS
330
C
102
}
330
C
100
AcDbDictionary
1001
ACAD
1000
TREAT_AS_HARD
1070
     0
  0
DICTIONARY
  5
2A
102
{ACAD_REACTORS
330
C
102
}
330
C
100
AcDbDictionary
  3
2DWIREFRAME
350
2F
  3
3DWIREFRAME
350
30
  3
3D_HIDDEN
350
31
  3
BASIC
350
32
  3
BRIGHTEN
350
36
  3
COLORCHANGE
350
3A
  3
CONCEPTUAL
350
34
  3
DIM
350
35
  3
FACEPATTERN
350
39
  3
FLAT
350
2B
  3
FLATWITHEDGES
350
2C
  3
GOURAUD
350
2D
  3
GOURAUDWITHEDGES
350
2E
  3
LINEPATTERN
350
38
  3
REALISTIC
350
33
  3
THICKEN
350
37
1001
ACAD
1000
TREAT_AS_HARD
1070
     0
  0
DICTIONARY
  5
DF
102
{ACAD_REACTORS
330
C
102
}
330
C
100
AcDbDictionary
  3
DIMASSOC
350
E2
  3
HIDETEXT
350
E3
1001
ACAD
1000
TREAT_AS_HARD
1070
     0
  0
MATERIAL
  5
3D
102
{ACAD_REACTORS
330
3B
102
}
102
{ACAD_XDICTIONARY
360
E6
102
}
330
3B
100
AcDbMaterial
  1
ByBlock
  0
MATERIAL
  5
3C
102
{ACAD_REACTORS
330
3B
102
}
102
{ACAD_XDICTIONARY
360
E4
102
}
330
3B
100
AcDbMaterial
  1
ByLayer
  0
MATERIAL
  5
3E
102
{ACAD_REACTORS
330
3B
102
}
102
{ACAD_XDICTIONARY
360
E8
102
}
330
3B
100
AcDbMaterial
  1
Global
  0
MLINESTYLE
  5
18
102
{ACAD_REACTORS
330
17
102
}
330
17
100
AcDbMlineStyle
  2
Standard
 70
     0
  3

 62
   256
 51
90.0
 52
90.0
 71
     2
 49
0.5
 62
   256
  6
BYLAYER
 49
-0.5
 62
   256
  6
BYLAYER
  0
ACAD_PROXY_OBJECT
  5
2F
102
{ACAD_REACTORS
330
2A
102
}
330
2A
100
AcDbZombieObject
 90
      499
 91
      501
 93
      436
310
42CC9915DA5C99599C985B595049028333333333333E3BF0000000000000FB0107901411070040501600405405064090741402480A0340
1001
ACAD
1000
AcDbSavedByObjectVersion
1070
     0
  0
ACAD_PROXY_OBJECT
  5
30
102
{ACAD_REACTORS
330
2A
102
}
330
2A
100
AcDbZombieObject
 90
      499
 91
      501
 93
      436
310
42CCD915DA5C99599C985B595059028333333333333E3BF0000000000000FB0107901411070040501600405405064090741402480A0340
1001
ACAD
1000
AcDbSavedByObjectVersion
1070
     0
  0
ACAD_PROXY_OBJECT
  5
31
102
{ACAD_REACTORS
330
2A
102
}
330
2A
100
AcDbZombieObject
 90
      499
 91
      501
 93
      500
310
424CD108121A5919195B90640502408333333333333E3BF0000000000000FB01079024090700405020000000000001110200405405064090740C02480A0340
1001
ACAD
1000
AcDbSavedByObjectVersion
1070
     0
  0
ACAD_PROXY_OBJECT
  5
32
102
{ACAD_REACTORS
330
2A
102
}
330
2A
100
AcDbZombieObject
 90
      499
 91
      501
 93
      388
310
4150985CDA58D07406404333333333333E3BF0000000000000FB0107A41107004050150841D405064090741402480A0350
1001
ACAD
1000
AcDbSavedByObjectVersion
1070
     0
  0
ACAD_PROXY_OBJECT
  5
36
102
{ACAD_REACTORS
330
2A
102
}
330
2A
100
AcDbZombieObject
 90
      499
 91
      501
 93
      428
310
42109C9A59DA1D195B90C409028333333333333E3BF0000000000000FB010790141107004050150841D405064090741402480A029950
1001
ACAD
1000
AcDbSavedByObjectVersion
1070
     0
  0
ACAD_PROXY_OBJECT
  5
3A
102
{ACAD_REACTORS
330
2A
102
}
330
2A
100
AcDbZombieObject
 90
      499
 91
      501
 93
      452
310
42D0DBDB1BDC90DA185B99D95104090240C333333333333E3BF0000000000000FB0108901411070040501508421405064090741402480A0350
1001
ACAD
1000
AcDbSavedByObjectVersion
1070
     0
  0
ACAD_PROXY_OBJECT
  5
34
102
{ACAD_REACTORS
330
2A
102
}
330
2A
100
AcDbZombieObject
 90
      499
 91
      501
 93
      500
310
4290DBDB98D95C1D1D585B10940D028333333333333E3BF0000000000000FB0107902409070040501000000000000111010841D405064090740C02480A0340
1001
ACAD
1000
AcDbSavedByObjectVersion
1070
     0
  0
ACAD_PROXY_OBJECT
  5
35
102
{ACAD_REACTORS
330
2A
102
}
330
2A
100
AcDbZombieObject
 90
      499
 91
      501
 93
      412
310
40D11A5B50B409028333333333333E3BF0000000000000FB010790141107004050150841D405064090741402480A02677FFFFFD0
1001
ACAD
1000
AcDbSavedByObjectVersion
1070
     0
  0
ACAD_PROXY_OBJECT
  5
39
102
{ACAD_REACTORS
330
2A
102
}
330
2A
100
AcDbZombieObject
 90
      499
 91
      501
 93
      444
310
42D19858D95C185D1D195C9B90F409028333333333333E3BF0000000000000FB010790141107004050150841D405064090741402480A0350
1001
ACAD
1000
AcDbSavedByObjectVersion
1070
     0
  0
ACAD_PROXY_OBJECT
  5
2B
102
{ACAD_REACTORS
330
2A
102
}
330
2A
100
AcDbZombieObject
 90
      499
 91
      501
 93
      388
310
41119B185D240901404333333333333E3BF0000000000000F9010740A41107004050150841D405064090741402480A1B50
1001
ACAD
1000
AcDbSavedByObjectVersion
1070
     0
  0
ACAD_PROXY_OBJECT
  5
2C
102
{ACAD_REACTORS
330
2A
102
}
330
2A
100
AcDbZombieObject
 90
      499
 91
      501
 93
      476
310
43519B185D15DA5D1A115919D95CD0140901404333333333333E3BF0000000000000F9010740901411070040501600405405064090741402480A1B50
1001
ACAD
1000
AcDbSavedByObjectVersion
1070
     0
  0
ACAD_PROXY_OBJECT
  5
2D
102
{ACAD_REACTORS
330
2A
102
}
330
2A
100
AcDbZombieObject
 90
      499
 91
      501
 93
      412
310
41D1DBDD5C985D5910240902404333333333333E3BF0000000000000F9010740A411070040501641D405064090741402480A1B50
1001
ACAD
1000
AcDbSavedByObjectVersion
1070
     0
  0
ACAD_PROXY_OBJECT
  5
2E
102
{ACAD_REACTORS
330
2A
102
}
330
2A
100
AcDbZombieObject
 90
      499
 91
      501
 93
      500
310
4411DBDD5C985D5915DA5D1A115919D95CD0340902404333333333333E3BF0000000000000F9010740901411070040501600405405064090741402480A1B50
1001
ACAD
1000
AcDbSavedByObjectVersion
1070
     0
  0
ACAD_PROXY_OBJECT
  5
38
102
{ACAD_REACTORS
330
2A
102
}
330
2A
100
AcDbZombieObject
 90
      499
 91
      501
 93
      444
310
42D31A5B995C185D1D195C9B90E409028333333333333E3BF0000000000000FB010790141107004050750841D405064090741402483A0350
1001
ACAD
1000
AcDbSavedByObjectVersion
1070
     0
  0
ACAD_PROXY_OBJECT
  5
33
102
{ACAD_REACTORS
330
2A
102
}
330
2A
100
AcDbZombieObject
 90
      499
 91
      501
 93
      420
310
425499585B1A5CDD1A58D08409028333333333333E3BF0000000000000FB01079019070040501508421405064090741402480A1B40
1001
ACAD
1000
AcDbSavedByObjectVersion
1070
     0
  0
ACAD_PROXY_OBJECT
  5
37
102
{ACAD_REACTORS
330
2A
102
}
330
2A
100
AcDbZombieObject
 90
      499
 91
      501
 93
      412
310
41D51A1A58DAD95B90D409028333333333333E3BF0000000000000FB010790141107004050150C41D405064090741402480A0350
1001
ACAD
1000
AcDbSavedByObjectVersion
1070
     0
  0
DICTIONARYVAR
  5
E2
102
{ACAD_REACTORS
330
DF
102
}
330
DF
100
DictionaryVariables
280
     0
  1
2
  0
DICTIONARYVAR
  5
E3
102
{ACAD_REACTORS
330
DF
102
}
330
DF
100
DictionaryVariables
280
     0
  1
1
  0
DICTIONARY
  5
E6
330
3D
100
AcDbDictionary
  3
ACAD_XREC_ROUNDTRIP
360
E7
1001
ACAD
1000
TREAT_AS_HARD
1070
     1
  0
DICTIONARY
  5
E4
330
3C
100
AcDbDictionary
  3
ACAD_XREC_ROUNDTRIP
360
E5
1001
ACAD
1000
TREAT_AS_HARD
1070
     1
  0
DICTIONARY
  5
E8
330
3E
100
AcDbDictionary
  3
ACAD_XREC_ROUNDTRIP
360
E9
1001
ACAD
1000
TREAT_AS_HARD
1070
     1
  0
XRECORD
  5
E7
102
{ACAD_REACTORS
330
E6
102
}
330
E6
100
AcDbXrecord
102
MATERIAL
148
0.0
149
0.0
149
0.0
 93
        0
 94
      127
282
     0
 72
     1
 77
     1
171
     1
175
     1
179
     1
273
     0
  0
XRECORD
  5
E5
102
{ACAD_REACTORS
330
E4
102
}
330
E4
100
AcDbXrecord
102
MATERIAL
148
0.0
149
0.0
149
0.0
 93
        0
 94
      127
282
     0
 72
     1
 77
     1
171
     1
175
     1
179
     1
273
     0
  0
XRECORD
  5
E9
102
{ACAD_REACTORS
330
E8
102
}
330
E8
100
AcDbXrecord
102
MATERIAL
148
0.0
149
0.0
149
0.0
 93
        0
 94
      127
282
     0
 72
     1
 77
     1
171
     1
175
     1
179
     1
273
     0
  0
ENDSEC
  0
EOF
